<?xml version="1.0" encoding="UTF-8" standalone="no" ?>
<!DOCTYPE svg PUBLIC "-//W3C//DTD SVG 1.1//EN" "http://www.w3.org/Graphics/SVG/1.1/DTD/svg11.dtd">
<svg xmlns="http://www.w3.org/2000/svg" xmlns:xlink="http://www.w3.org/1999/xlink" version="1.1" width="127.71640647171654" height="46.20267165484967" viewBox="271.98632248245883 161.68534080137516 127.71640647171654 46.20267165484967" xml:space="preserve">
<desc>Created with Fabric.js 5.3.0</desc>
<defs>
</defs>
<g transform="matrix(0.6560011464 0 0 0.6560011464 272.4863224825 205.4049367263)" id="UoBKkA34OXApDiBr2iOc0"  >
<path style="stroke: rgb(255,255,255); stroke-width: 1; stroke-dasharray: none; stroke-linecap: butt; stroke-dashoffset: 0; stroke-linejoin: miter; stroke-miterlimit: 4; fill: rgb(255,255,255); fill-opacity: 0; fill-rule: nonzero; opacity: 1;" vector-effect="non-scaling-stroke"  transform=" translate(0, 0)" d="M 0 0 z" stroke-linecap="round" />
</g>
<g transform="matrix(0.6560011464 0 0 0.6560011464 340 184.7866766288)" id="quQvf7qccng9CpNzsaxBc"  >
<g style="" vector-effect="non-scaling-stroke"   >
		<g transform="matrix(3.8556 0 0 1.48869 -0.9211017745 -0.1722263579)" id="VDFS5Ah_in-VDQwX0h53n"  >
<path style="stroke: rgb(255,255,255); stroke-width: 0; stroke-dasharray: none; stroke-linecap: butt; stroke-dashoffset: 0; stroke-linejoin: miter; stroke-miterlimit: 4; fill: rgb(255,255,255); fill-rule: nonzero; opacity: 1;" vector-effect="non-scaling-stroke"  transform=" translate(0, 0)" d="M -23.34267 -8.79693 C -23.34267 -16.83032 -20.82818 -23.34267 -17.726399999999998 -23.34267 L 23.342670000000005 -23.34267 L 23.342670000000005 10.944099999999999 L 23.342670000000005 10.944099999999999 C 23.342670000000005 17.79164 21.199360000000006 23.34267 18.555440000000004 23.34267 L -23.34267 23.34267 z" stroke-linecap="round" />
</g>
		<g transform="matrix(0.0386729937 0 0 -0.0360628668 -15.3657228115 -0.0540943002)" id="PSiVcSvaxsO_AMilTndzs"  >
<path style="stroke: rgb(255,255,255); stroke-width: 0; stroke-dasharray: none; stroke-linecap: butt; stroke-dashoffset: 0; stroke-linejoin: miter; stroke-miterlimit: 4; fill: rgb(238,43,58); fill-rule: nonzero; opacity: 1;" vector-effect="non-scaling-stroke"  transform=" translate(-5344, -3835)" d="M 3815 4799 C 3689 4781 3545 4685 3473 4572 C 3406 4467 3398 4430 3392 4183 L 3388 3960 L 3674 3960 L 3960 3960 L 3960 4173 L 3960 4386 L 3991 4418 C 4012 4439 4035 4451 4064 4455 C 4087 4459 4257 4460 4440 4457 C 4801 4453 4836 4448 4904 4396 C 5027 4303 5074 4188 5050 4041 C 5043 3999 5030 3949 5020 3930 C 4998 3886 4940 3826 4892 3796 C 4822 3754 4788 3750 4471 3750 L 4170 3750 L 4170 3525 C 4170 3282 4165 3256 4118 3233 C 4074 3212 4059 3210 4026 3224 C 3962 3251 3960 3259 3960 3517 L 3960 3750 L 3675 3750 L 3390 3750 L 3390 3305 L 3390 2860 L 5345 2860 L 7300 2860 L 7300 3305 L 7300 3750 L 6980 3750 L 6660 3750 L 6660 3525 C 6660 3272 6655 3249 6596 3225 C 6553 3207 6499 3221 6470 3257 C 6450 3282 6450 3292 6450 4046 L 6450 4810 L 5163 4809 C 4454 4808 3848 4804 3815 4799 z M 6129 4454 C 6217 4436 6249 4334 6189 4266 L 6159 4231 L 5806 4228 C 5411 4225 5419 4226 5380 4150 C 5355 4101 5355 4077 5380 4025 C 5413 3957 5420 3956 5745 3950 C 6086 3943 6112 3937 6211 3843 C 6324 3736 6356 3569 6291 3428 C 6261 3360 6178 3275 6112 3243 L 6055 3215 L 5680 3212 C 5474 3210 5281 3211 5253 3215 C 5181 3224 5140 3263 5140 3324 C 5140 3365 5160 3406 5189 3425 C 5199 3431 5365 3437 5605 3440 C 5970 3445 6008 3447 6033 3463 C 6096 3504 6119 3596 6081 3653 C 6041 3715 6042 3714 5720 3721 C 5441 3726 5422 3727 5365 3750 C 5290 3779 5209 3858 5172 3937 C 5149 3987 5145 4008 5145 4090 C 5145 4172 5149 4193 5171 4240 C 5223 4348 5336 4433 5454 4450 C 5517 4459 6086 4462 6129 4454 z" stroke-linecap="round" />
</g>
		<g transform="matrix(0.0386729937 0 0 -0.0360628668 63.3906067148 0)" id="g96izb1Yn6ohJ9zMc-B9E"  >
<path style="stroke: rgb(255,255,255); stroke-width: 0; stroke-dasharray: none; stroke-linecap: butt; stroke-dashoffset: 0; stroke-linejoin: miter; stroke-miterlimit: 4; fill: rgb(238,43,58); fill-rule: nonzero; opacity: 1;" vector-effect="non-scaling-stroke"  transform=" translate(-7374.1803398875, -3833.5)" d="M 6660 4385 L 6660 3960 L 6979 3960 L 7299 3960 L 7302 4176 L 7305 4392 L 7338 4421 C 7385 4464 7440 4462 7486 4416 L 7520 4382 L 7520 3620 L 7520 2857 L 7615 2864 C 7730 2873 7796 2893 7873 2944 C 7967 3007 8031 3094 8066 3207 C 8083 3260 8085 3326 8088 3925 C 8089 4288 8088 4636 8084 4698 L 8078 4810 L 7369 4810 L 6660 4810 L 6660 4385 z" stroke-linecap="round" />
</g>
		<g transform="matrix(0.0386729937 0 0 -0.0391579382 -47.8854499745 -9.7962460772)" id="kwuiRQf1BmWqhgQnClrcO"  >
<path style="stroke: rgb(255,255,255); stroke-width: 0; stroke-dasharray: none; stroke-linecap: butt; stroke-dashoffset: 0; stroke-linejoin: miter; stroke-miterlimit: 4; fill: rgb(238,43,58); fill-rule: nonzero; opacity: 1;" vector-effect="non-scaling-stroke"  transform=" translate(-4505.5042598974, -4100)" d="M 4170 4100 L 4170 3960 L 4458 3960 C 4725 3960 4747 3961 4777 3980 C 4795 3990 4816 4010 4825 4024 C 4847 4057 4846 4129 4824 4175 C 4794 4238 4785 4240 4460 4240 L 4170 4240 L 4170 4100 z" stroke-linecap="round" />
</g>
</g>
</g>
</svg>