<?xml version="1.0" encoding="UTF-8" standalone="no" ?>
<!DOCTYPE svg PUBLIC "-//W3C//DTD SVG 1.1//EN" "http://www.w3.org/Graphics/SVG/1.1/DTD/svg11.dtd">
<svg xmlns="http://www.w3.org/2000/svg" xmlns:xlink="http://www.w3.org/1999/xlink" version="1.1" width="127.7164064673" height="66.9646203395" viewBox="271.98632248245 166.68534080305 127.7164064673 66.9646203395" xml:space="preserve">
<desc>Created with Fabric.js 5.3.0</desc>
<defs>
</defs>
<g transform="matrix(1 0 0 1 335.8445257161 200.1676509728)" id="IM-yvSPFoN8H-I2vVed-S"  >
<g style="" vector-effect="non-scaling-stroke"   >
		<g transform="matrix(0.0097266194 0 0 -0.0097266194 -46.1580430397 23.4834913117)" id="Qh92C16FvmGdLsrexXw09"  >
<path style="stroke: rgb(255,255,255); stroke-width: 0; stroke-dasharray: none; stroke-linecap: butt; stroke-dashoffset: 0; stroke-linejoin: miter; stroke-miterlimit: 4; fill: rgb(238,43,58); fill-rule: nonzero; opacity: 1;" vector-effect="non-scaling-stroke"  transform=" translate(-584.4789546449, -1061.5023766135)" d="M 51 1704 C 0 1668 0 1663 0 1060 C 0 435 -1 447 65 416 C 116 391 172 407 200 453 C 218 482 220 505 220 728 L 220 970 L 513 970 C 673 970 831 974 863 980 C 993 1001 1097 1079 1140 1187 C 1174 1274 1179 1406 1150 1483 C 1117 1571 1057 1638 976 1680 L 907 1715 L 491 1718 C 116 1720 73 1719 51 1704 z M 893 1487 C 954 1447 976 1343 938 1270 C 898 1191 892 1190 533 1190 L 220 1190 L 220 1351 L 220 1511 L 543 1508 C 831 1505 869 1503 893 1487 z" stroke-linecap="round" />
</g>
		<g transform="matrix(0.0097266194 0 0 -0.0097266194 -5.8638665062 23.4737878087)" id="739HGUgbBBQgu3RCJJNZO"  >
<path style="stroke: rgb(255,255,255); stroke-width: 0; stroke-dasharray: none; stroke-linecap: butt; stroke-dashoffset: 0; stroke-linejoin: miter; stroke-miterlimit: 4; fill: rgb(238,43,58); fill-rule: nonzero; opacity: 1;" vector-effect="non-scaling-stroke"  transform=" translate(-4727.1491669548, -1062.5)" d="M 4352 1701 C 4244 1664 4174 1599 4119 1485 C 4099 1442 4095 1420 4095 1335 C 4095 1242 4097 1230 4128 1168 C 4169 1084 4224 1029 4308 988 L 4374 955 L 4702 950 C 5013 945 5030 944 5057 924 C 5155 851 5155 729 5057 656 C 5029 636 5017 635 4595 632 L 4161 629 L 4130 599 C 4105 573 4100 561 4100 519 C 4100 479 4105 464 4129 438 L 4158 405 L 4622 405 L 5085 405 L 5136 433 C 5233 487 5296 561 5336 667 C 5418 883 5275 1126 5041 1170 C 5012 1175 4863 1180 4711 1180 C 4453 1180 4433 1181 4402 1200 C 4348 1233 4328 1275 4332 1348 C 4336 1405 4339 1414 4373 1448 L 4410 1485 L 4793 1490 C 5100 1494 5179 1498 5196 1509 C 5225 1528 5250 1572 5250 1604 C 5250 1642 5220 1697 5193 1709 C 5177 1716 5044 1720 4787 1720 C 4444 1719 4400 1717 4352 1701 z" stroke-linecap="round" />
</g>
		<g transform="matrix(0.0097266194 0 0 -0.0097266194 6.3650128111 23.5034192461)" id="4n04FFsFEvtZDJNJSEOtu"  >
<path style="stroke: rgb(255,255,255); stroke-width: 0; stroke-dasharray: none; stroke-linecap: butt; stroke-dashoffset: 0; stroke-linejoin: miter; stroke-miterlimit: 4; fill: rgb(238,43,58); fill-rule: nonzero; opacity: 1;" vector-effect="non-scaling-stroke"  transform=" translate(-5984.408116908, -1059.4535728549)" d="M 5562 1707 C 5509 1677 5511 1697 5509 1069 C 5508 624 5511 479 5520 458 C 5533 431 5583 400 5615 400 C 5637 400 5683 425 5701 446 C 5712 459 5716 515 5721 694 C 5728 973 5736 1008 5813 1072 C 5894 1141 5998 1157 6085 1116 C 6147 1087 6182 1055 6212 999 C 6234 957 6235 942 6240 715 C 6243 554 6249 468 6257 454 C 6264 442 6286 425 6306 415 C 6356 391 6413 407 6440 453 C 6458 482 6460 504 6460 690 C 6460 934 6452 992 6405 1086 C 6322 1254 6168 1350 5981 1350 C 5894 1350 5844 1338 5769 1300 C 5748 1289 5728 1280 5725 1280 C 5722 1280 5720 1361 5720 1460 C 5720 1577 5716 1648 5708 1665 C 5686 1713 5612 1734 5562 1707 z" stroke-linecap="round" />
</g>
		<g transform="matrix(0.0097266194 0 0 -0.0097266194 13.5904419679 18.0895416006)" id="G63Xj3yBznfNaNh_1i7fn"  >
<path style="stroke: rgb(255,255,255); stroke-width: 0; stroke-dasharray: none; stroke-linecap: butt; stroke-dashoffset: 0; stroke-linejoin: miter; stroke-miterlimit: 4; fill: rgb(238,43,58); fill-rule: nonzero; opacity: 1;" vector-effect="non-scaling-stroke"  transform=" translate(-6727.2591369264, -1616.0578165611)" d="M 6660 1691 C 6624 1655 6614 1618 6630 1579 C 6671 1482 6806 1490 6829 1591 C 6852 1694 6733 1765 6660 1691 z" stroke-linecap="round" />
</g>
		<g transform="matrix(0.0097266194 0 0 -0.0097266194 32.6812299902 23.4770146241)" id="uvxayDAcuWBGOLO0nViPO"  >
<path style="stroke: rgb(255,255,255); stroke-width: 0; stroke-dasharray: none; stroke-linecap: butt; stroke-dashoffset: 0; stroke-linejoin: miter; stroke-miterlimit: 4; fill: rgb(238,43,58); fill-rule: nonzero; opacity: 1;" vector-effect="non-scaling-stroke"  transform=" translate(-8689.9953353902, -1062.1682490353)" d="M 8180 1707 C 8166 1700 8147 1679 8138 1660 C 8121 1628 8120 1578 8120 1062 C 8120 422 8117 444 8194 415 C 8233 400 8241 400 8273 413 C 8336 440 8340 458 8340 730 L 8340 970 L 8693 968 L 9045 965 L 9047 740 C 9049 616 9050 503 9050 489 C 9050 456 9091 414 9131 406 C 9148 403 9176 406 9195 414 C 9262 442 9260 426 9260 1069 L 9260 1649 L 9229 1685 C 9195 1723 9155 1731 9106 1708 C 9049 1683 9045 1665 9042 1420 L 9040 1195 L 8690 1192 L 8341 1190 L 8338 1426 L 8335 1662 L 8302 1691 C 8267 1723 8223 1729 8180 1707 z" stroke-linecap="round" />
</g>
		<g transform="matrix(0.0097266194 0 0 -0.0097266194 55.5606621201 23.4969057359)" id="G3DkHgLsvTwHs3VhKxaJM"  >
<path style="stroke: rgb(255,255,255); stroke-width: 0; stroke-dasharray: none; stroke-linecap: butt; stroke-dashoffset: 0; stroke-linejoin: miter; stroke-miterlimit: 4; fill: rgb(238,43,58); fill-rule: nonzero; opacity: 1;" vector-effect="non-scaling-stroke"  transform=" translate(-11042.2444719441, -1060.1232310271)" d="M 10621 1706 C 10570 1678 10571 1687 10570 1054 C 10570 468 10570 464 10591 441 C 10641 387 10700 387 10750 439 L 10788 478 L 10821 458 C 10896 412 11032 391 11126 410 C 11437 473 11602 800 11467 1085 C 11427 1168 11350 1251 11275 1292 C 11147 1360 10983 1368 10853 1313 L 10780 1282 L 10780 1466 L 10780 1649 L 10749 1685 C 10724 1713 10711 1720 10681 1720 C 10661 1719 10634 1713 10621 1706 z M 11153 1112 C 11265 1062 11328 917 11289 799 C 11270 743 11210 672 11161 648 C 11104 621 11024 614 10962 631 C 10895 649 10820 728 10796 804 C 10753 941 10832 1083 10979 1131 C 11018 1144 11103 1134 11153 1112 z" stroke-linecap="round" />
</g>
		<g transform="matrix(0.0097266194 0 0 -0.0097266194 -36.1831901254 25.2663323468)" id="5PZ1xuttGMWMlHp18j5u4"  >
<path style="stroke: rgb(255,255,255); stroke-width: 0; stroke-dasharray: none; stroke-linecap: butt; stroke-dashoffset: 0; stroke-linejoin: miter; stroke-miterlimit: 4; fill: rgb(238,43,58); fill-rule: nonzero; opacity: 1;" vector-effect="non-scaling-stroke"  transform=" translate(-1610, -878.2073428151)" d="M 1384 1340 C 1361 1329 1338 1308 1331 1294 C 1323 1277 1320 1151 1320 879 C 1320 460 1321 451 1372 416 C 1415 386 1486 402 1516 448 C 1530 469 1534 515 1540 719 C 1547 998 1547 999 1629 1072 C 1682 1120 1733 1140 1799 1140 C 1861 1140 1900 1181 1900 1245 C 1900 1284 1895 1297 1870 1322 C 1840 1352 1838 1352 1757 1348 C 1691 1345 1660 1337 1606 1312 L 1538 1280 L 1506 1315 C 1487 1334 1468 1350 1462 1350 C 1456 1350 1446 1352 1438 1355 C 1431 1358 1407 1351 1384 1340 z" stroke-linecap="round" />
</g>
		<g transform="matrix(0.0097266194 0 0 -0.0097266194 13.6164720327 25.2677935339)" id="2P5mSoYn9WX7RUx4vqHTE"  >
<path style="stroke: rgb(255,255,255); stroke-width: 0; stroke-dasharray: none; stroke-linecap: butt; stroke-dashoffset: 0; stroke-linejoin: miter; stroke-miterlimit: 4; fill: rgb(238,43,58); fill-rule: nonzero; opacity: 1;" vector-effect="non-scaling-stroke"  transform=" translate(-6729.9353046392, -878.0571172367)" d="M 6703 1353 C 6673 1347 6632 1297 6625 1257 C 6622 1239 6620 1056 6622 850 C 6625 439 6624 447 6686 414 C 6715 398 6723 398 6759 410 C 6836 435 6835 426 6838 862 C 6840 1183 6838 1254 6826 1283 C 6805 1334 6754 1362 6703 1353 z" stroke-linecap="round" />
</g>
		<g transform="matrix(0.0097266194 0 0 -0.0097266194 -28.1155819412 25.297702779)" id="ZgqgMXiaWx1dmU3Ao1zjm"  >
<path style="stroke: rgb(255,255,255); stroke-width: 0; stroke-dasharray: none; stroke-linecap: butt; stroke-dashoffset: 0; stroke-linejoin: miter; stroke-miterlimit: 4; fill: rgb(238,43,58); fill-rule: nonzero; opacity: 1;" vector-effect="non-scaling-stroke"  transform=" translate(0, 0)" d="M -129.43599 453.01787 C -165.43599 440.01787 -215.43599 418.01787 -240.43599 403.01787 C -335.43599 347.01787 -420.43599 234.01787000000002 -449.43599 126.01787000000002 C -464.43599 69.01787000000002 -464.43599 -55.982129999999984 -448.43599 -119.98212999999998 C -422.43599 -230.98212999999998 -322.43599 -358.98213 -221.43599 -412.98213 C -74.43599 -490.98213 85.56401 -492.98213 233.56401 -418.98213 C 288.56401 -389.98213 406.56401 -277.98213 421.56401 -237.98212999999998 C 459.56401 -135.98212999999998 365.56401 -50.982129999999984 270.56401 -99.98212999999998 C 253.56401 -108.98212999999998 240.56401 -118.98212999999998 240.56401 -122.98212999999998 C 240.56401 -140.98212999999998 153.56401 -218.98212999999998 113.56401 -236.98212999999998 C 48.564009999999996 -265.98213 -37.435990000000004 -262.98213 -105.43599 -229.98212999999998 C -135.43599 -214.98212999999998 -158.43599 -197.98212999999998 -156.43599 -191.98212999999998 C -154.43599 -185.98212999999998 -27.435990000000004 -129.98212999999998 126.56401 -67.98212999999998 C 426.56401 53.017870000000016 460.56401 74.01787000000002 460.56401 135.01787000000002 C 460.56401 218.01787000000002 327.56401 376.01787 207.56401 435.01787 C 146.56401 465.01787 128.56401 469.01787 37.564009999999996 472.01787 C -49.435990000000004 475.01787 -74.43599 472.01787 -129.43599 453.01787 z M 129.56401 232.01787 C 154.56401 220.01787 175.56401 205.01787 177.56401 199.01787 C 181.56401 188.01787 -238.43599 11.017869999999988 -247.43599 19.017869999999988 C -257.43599 30.017869999999988 -215.43599 136.01787 -187.43599 169.01787 C -156.43599 206.01787 -97.43599 242.01787 -44.435990000000004 256.01787 C 0.5640099999999961 268.01787 80.56401 257.01787 129.56401 232.01787000000002 z" stroke-linecap="round" />
</g>
		<g transform="matrix(0.0097266194 0 0 -0.0097266194 -17.6585068066 27.0645094901)" id="ol9FfjuPXFkorVQm9A51w"  >
<path style="stroke: rgb(255,255,255); stroke-width: 0; stroke-dasharray: none; stroke-linecap: butt; stroke-dashoffset: 0; stroke-linejoin: miter; stroke-miterlimit: 4; fill: rgb(238,43,58); fill-rule: nonzero; opacity: 1;" vector-effect="non-scaling-stroke"  transform=" translate(-3514.5346096908, -693.3355938725)" d="M 3091 1334 C 3041 1298 3040 1292 3040 698 C 3040 355 3044 131 3050 109 C 3067 47 3136 18 3196 46 C 3254 74 3260 96 3260 300 L 3260 481 L 3308 457 C 3373 423 3408 412 3487 405 C 3676 386 3856 493 3945 675 C 3981 748 3985 764 3988 851 C 3991 921 3988 963 3975 1006 C 3931 1158 3801 1290 3651 1334 C 3544 1366 3382 1347 3291 1294 C 3260 1276 3258 1276 3249 1293 C 3217 1349 3141 1369 3091 1334 z M 3644 1102 C 3734 1051 3788 946 3775 846 C 3765 777 3740 730 3685 682 C 3626 630 3584 616 3501 622 C 3424 628 3383 646 3332 699 C 3217 817 3244 1013 3386 1096 C 3475 1148 3558 1150 3644 1102 z" stroke-linecap="round" />
</g>
		<g transform="matrix(0.0097266194 0 0 -0.0097266194 21.1442966639 27.0785705983)" id="Wma1QX1AMhug58mbfC4Mb"  >
<path style="stroke: rgb(255,255,255); stroke-width: 0; stroke-dasharray: none; stroke-linecap: butt; stroke-dashoffset: 0; stroke-linejoin: miter; stroke-miterlimit: 4; fill: rgb(238,43,58); fill-rule: nonzero; opacity: 1;" vector-effect="non-scaling-stroke"  transform=" translate(-7503.8757979272, -691.8899622966)" d="M 7083 1338 C 7030 1313 7030 1309 7030 682 C 7030 116 7030 102 7050 77 C 7061 63 7086 46 7105 40 C 7135 30 7146 31 7178 47 C 7234 74 7239 94 7240 294 C 7242 455 7243 471 7258 467 C 7268 464 7302 450 7335 436 C 7600 326 7902 493 7970 789 C 7985 855 7978 955 7951 1032 C 7857 1306 7542 1430 7281 1296 C 7249 1279 7249 1279 7216 1315 C 7189 1344 7176 1350 7144 1349 C 7122 1349 7095 1344 7083 1338 z M 7626 1105 C 7721 1049 7766 963 7758 851 C 7754 792 7748 774 7718 733 C 7668 663 7606 629 7522 622 C 7467 618 7445 622 7402 640 C 7291 688 7230 805 7251 926 C 7267 1019 7350 1106 7445 1131 C 7494 1144 7581 1132 7626 1105 z" stroke-linecap="round" />
</g>
		<g transform="matrix(0.0097266194 0 0 -0.0097266194 44.4748014066 25.2883619719)" id="rEDjUG66QCPfiLqD-nQ6q"  >
<path style="stroke: rgb(255,255,255); stroke-width: 0; stroke-dasharray: none; stroke-linecap: butt; stroke-dashoffset: 0; stroke-linejoin: miter; stroke-miterlimit: 4; fill: rgb(238,43,58); fill-rule: nonzero; opacity: 1;" vector-effect="non-scaling-stroke"  transform=" translate(-9902.5, -875.9424628919)" d="M 9454 1319 L 9425 1289 L 9425 1052 C 9425 794 9430 762 9483 655 C 9522 577 9615 486 9694 449 C 9827 387 10032 394 10133 465 C 10160 484 10170 484 10170 466 C 10170 443 10229 400 10261 400 C 10305 400 10345 425 10364 464 C 10378 494 10380 547 10380 874 C 10380 1278 10378 1300 10329 1334 C 10298 1355 10231 1354 10204 1332 C 10163 1300 10160 1279 10160 1057 C 10160 889 10157 833 10145 799 C 10118 723 10083 682 10014 649 C 9959 622 9943 618 9888 622 C 9814 627 9765 648 9717 697 C 9648 765 9646 778 9640 1048 L 9635 1292 L 9602 1321 C 9556 1363 9495 1362 9454 1319 z" stroke-linecap="round" />
</g>
		<g transform="matrix(0.6560011464 0 0 0.6560011464 -63.3582032336 5.2372857535)" id="UoBKkA34OXApDiBr2iOc0"  >
<path style="stroke: rgb(255,255,255); stroke-width: 1; stroke-dasharray: none; stroke-linecap: butt; stroke-dashoffset: 0; stroke-linejoin: miter; stroke-miterlimit: 4; fill: rgb(255,255,255); fill-opacity: 0; fill-rule: nonzero; opacity: 1;" vector-effect="non-scaling-stroke"  transform=" translate(0, 0)" d="M 0 0 z" stroke-linecap="round" />
</g>
		<g transform="matrix(0.6560011464 0 0 0.6560011464 4.1554742839 -10.380974344)" id="quQvf7qccng9CpNzsaxBc"  >
<g style="" vector-effect="non-scaling-stroke"   >
		<g transform="matrix(3.8556 0 0 1.48869 -0.9211017745 -0.1722263579)" id="VDFS5Ah_in-VDQwX0h53n"  >
<path style="stroke: rgb(255,255,255); stroke-width: 0; stroke-dasharray: none; stroke-linecap: butt; stroke-dashoffset: 0; stroke-linejoin: miter; stroke-miterlimit: 4; fill: rgb(255,255,255); fill-rule: nonzero; opacity: 1;" vector-effect="non-scaling-stroke"  transform=" translate(0, 0)" d="M -23.34267 -8.79693 C -23.34267 -16.83032 -20.82818 -23.34267 -17.726399999999998 -23.34267 L 23.342670000000005 -23.34267 L 23.342670000000005 10.944099999999999 L 23.342670000000005 10.944099999999999 C 23.342670000000005 17.79164 21.199360000000006 23.34267 18.555440000000004 23.34267 L -23.34267 23.34267 z" stroke-linecap="round" />
</g>
		<g transform="matrix(0.0386729937 0 0 -0.0360628668 -15.3657228115 -0.0540943002)" id="PSiVcSvaxsO_AMilTndzs"  >
<path style="stroke: rgb(255,255,255); stroke-width: 0; stroke-dasharray: none; stroke-linecap: butt; stroke-dashoffset: 0; stroke-linejoin: miter; stroke-miterlimit: 4; fill: rgb(238,43,58); fill-rule: nonzero; opacity: 1;" vector-effect="non-scaling-stroke"  transform=" translate(-5344, -3835)" d="M 3815 4799 C 3689 4781 3545 4685 3473 4572 C 3406 4467 3398 4430 3392 4183 L 3388 3960 L 3674 3960 L 3960 3960 L 3960 4173 L 3960 4386 L 3991 4418 C 4012 4439 4035 4451 4064 4455 C 4087 4459 4257 4460 4440 4457 C 4801 4453 4836 4448 4904 4396 C 5027 4303 5074 4188 5050 4041 C 5043 3999 5030 3949 5020 3930 C 4998 3886 4940 3826 4892 3796 C 4822 3754 4788 3750 4471 3750 L 4170 3750 L 4170 3525 C 4170 3282 4165 3256 4118 3233 C 4074 3212 4059 3210 4026 3224 C 3962 3251 3960 3259 3960 3517 L 3960 3750 L 3675 3750 L 3390 3750 L 3390 3305 L 3390 2860 L 5345 2860 L 7300 2860 L 7300 3305 L 7300 3750 L 6980 3750 L 6660 3750 L 6660 3525 C 6660 3272 6655 3249 6596 3225 C 6553 3207 6499 3221 6470 3257 C 6450 3282 6450 3292 6450 4046 L 6450 4810 L 5163 4809 C 4454 4808 3848 4804 3815 4799 z M 6129 4454 C 6217 4436 6249 4334 6189 4266 L 6159 4231 L 5806 4228 C 5411 4225 5419 4226 5380 4150 C 5355 4101 5355 4077 5380 4025 C 5413 3957 5420 3956 5745 3950 C 6086 3943 6112 3937 6211 3843 C 6324 3736 6356 3569 6291 3428 C 6261 3360 6178 3275 6112 3243 L 6055 3215 L 5680 3212 C 5474 3210 5281 3211 5253 3215 C 5181 3224 5140 3263 5140 3324 C 5140 3365 5160 3406 5189 3425 C 5199 3431 5365 3437 5605 3440 C 5970 3445 6008 3447 6033 3463 C 6096 3504 6119 3596 6081 3653 C 6041 3715 6042 3714 5720 3721 C 5441 3726 5422 3727 5365 3750 C 5290 3779 5209 3858 5172 3937 C 5149 3987 5145 4008 5145 4090 C 5145 4172 5149 4193 5171 4240 C 5223 4348 5336 4433 5454 4450 C 5517 4459 6086 4462 6129 4454 z" stroke-linecap="round" />
</g>
		<g transform="matrix(0.0386729937 0 0 -0.0360628668 63.3906067148 0)" id="g96izb1Yn6ohJ9zMc-B9E"  >
<path style="stroke: rgb(255,255,255); stroke-width: 0; stroke-dasharray: none; stroke-linecap: butt; stroke-dashoffset: 0; stroke-linejoin: miter; stroke-miterlimit: 4; fill: rgb(238,43,58); fill-rule: nonzero; opacity: 1;" vector-effect="non-scaling-stroke"  transform=" translate(-7374.1803398875, -3833.5)" d="M 6660 4385 L 6660 3960 L 6979 3960 L 7299 3960 L 7302 4176 L 7305 4392 L 7338 4421 C 7385 4464 7440 4462 7486 4416 L 7520 4382 L 7520 3620 L 7520 2857 L 7615 2864 C 7730 2873 7796 2893 7873 2944 C 7967 3007 8031 3094 8066 3207 C 8083 3260 8085 3326 8088 3925 C 8089 4288 8088 4636 8084 4698 L 8078 4810 L 7369 4810 L 6660 4810 L 6660 4385 z" stroke-linecap="round" />
</g>
		<g transform="matrix(0.0386729937 0 0 -0.0391579382 -47.8854499745 -9.7962460772)" id="kwuiRQf1BmWqhgQnClrcO"  >
<path style="stroke: rgb(255,255,255); stroke-width: 0; stroke-dasharray: none; stroke-linecap: butt; stroke-dashoffset: 0; stroke-linejoin: miter; stroke-miterlimit: 4; fill: rgb(238,43,58); fill-rule: nonzero; opacity: 1;" vector-effect="non-scaling-stroke"  transform=" translate(-4505.5042598974, -4100)" d="M 4170 4100 L 4170 3960 L 4458 3960 C 4725 3960 4747 3961 4777 3980 C 4795 3990 4816 4010 4825 4024 C 4847 4057 4846 4129 4824 4175 C 4794 4238 4785 4240 4460 4240 L 4170 4240 L 4170 4100 z" stroke-linecap="round" />
</g>
</g>
</g>
</g>
</g>
</svg>